<svg width="221" height="221" xmlns="http://www.w3.org/2000/svg">
 <!-- Created with Method Draw - http://github.com/duopixel/Method-Draw/ -->
 <g>
  <title>background</title>
  <rect fill="none" id="canvas_background" height="223" width="223" y="-1" x="-1"/>
 </g>
 <g>
  <title>Layer 1</title>
  <g id="panda_bear">
   <circle id="svg_1" fill="#019678" r="110" cy="110.499992" cx="110.499996"/>
   <path id="svg_2" fill="#171717" d="m67.099996,146.499992c-13.1,7.74 -23.94,28.35 -28.46,47.24a109.88,109.88 0 0 0 144.44,-0.62c-3.8,-17.75 -13.83,-36.27 -22,-44.62c-14.04,-14.39 -70.99,-15.59 -93.98,-2z"/>
   <path id="svg_3" fill="#171717" d="m177.889996,176.499992l-5.7,9.68l6.31,10.71c1.55,-1.22 3.08,-2.47 4.56,-3.77a101.29,101.29 0 0 0 -5.17,-16.62z"/>
   <path id="svg_4" fill="#171717" d="m68.089996,145.959992l3.58,6.08l6,-10.08a53.44,53.44 0 0 0 -9.58,4z"/>
   <path id="svg_5" fill="#171717" d="m145.379996,140.659992l6.71,11.38l4.19,-7.12a48.4,48.4 0 0 0 -10.9,-4.26z"/>
   <path id="svg_6" fill="#171717" d="m111.999996,220.499992l-0.12,-0.2l-0.11,0.2l0.23,0z"/>
   <path id="svg_7" fill="#171717" d="m131.979996,186.159992l16.29,27.64a108.72,108.72 0 0 0 10.17,-4.3l13.75,-23.34l-20.1,-34.12l-20.11,34.12z"/>
   <path id="svg_8" fill="#171717" d="m38.639996,193.739992c1.86,1.61 3.78,3.13 5.75,4.61l7.18,-12.19l-6.54,-11.11a107.48,107.48 0 0 0 -6.39,18.69z"/>
   <path id="svg_9" fill="#171717" d="m103.239996,137.369992l8.64,14.67l8.8,-14.93a153.89,153.89 0 0 0 -17.44,0.26z"/>
   <polygon id="svg_10" fill="#171717" points="91.77999114990234,186.15996479988098 111.8800048828125,220.27001118659973 131.97999572753906,186.15996479988098 111.8800048828125,152.03996968269348 91.77999114990234,186.15996479988098 "/>
   <path id="svg_11" fill="#171717" d="m51.569996,186.159992l14.79,25.09q4.23,1.86 8.65,3.36l16.77,-28.45l-20.11,-34.12l-20.1,34.12z"/>
   <path id="svg_12" fill="#fbae17" d="m178.499996,196.889992l-6.33,-10.73l-13.73,23.34a109.92,109.92 0 0 0 20.06,-12.61z"/>
   <path id="svg_13" fill="#fbae17" d="m111.999996,220.499992a109.54,109.54 0 0 0 36.27,-6.67l-16.29,-27.64l-20.1,34.11l0.12,0.2z"/>
   <path id="svg_14" fill="#fbae17" d="m75.009996,214.609992a109.4,109.4 0 0 0 35.49,5.89l1.27,0l0.11,-0.2l-20.1,-34.11l-16.77,28.42z"/>
   <path id="svg_15" fill="#fbae17" d="m66.359996,211.249992l-14.79,-25.09l-7.18,12.19a109.93,109.93 0 0 0 21.97,12.9z"/>
   <path id="svg_16" fill="#fbae17" d="m161.099996,148.499992a21.66,21.66 0 0 0 -4.82,-3.58l-4.19,7.12l20.1,34.12l5.7,-9.68c-4.74,-11.76 -11.2,-22.26 -16.79,-27.98z"/>
   <path id="svg_17" fill="#fbae17" d="m120.679996,137.109992l-8.8,14.93l20.1,34.12l20.11,-34.12l-6.71,-11.38a114,114 0 0 0 -24.7,-3.55z"/>
   <path id="svg_18" fill="#fbae17" d="m103.239996,137.369992a111.91,111.91 0 0 0 -25.62,4.59l-6,10.08l20.11,34.12l20.1,-34.12l-8.59,-14.67z"/>
   <path id="svg_19" fill="#fbae17" d="m67.099996,146.499992c-8.79,5.19 -16.55,16.18 -22.07,28.55l6.54,11.11l20.1,-34.12l-3.58,-6.08c-0.33,0.18 -0.67,0.35 -0.99,0.54z"/>
   <path id="svg_20" fill="#171717" d="m149.639996,71.329992a28.27,28.27 0 0 1 1.71,-13.18a18.05,18.05 0 0 1 8.86,-9.65a15.13,15.13 0 0 1 15.83,25.5c-5.13,4.16 -12.25,4.52 -18.85,4.69l-7.55,-7.36z"/>
   <path id="svg_21" fill="#171717" d="m71.359996,73.329992a28.27,28.27 0 0 0 -1.71,-13.18a18.05,18.05 0 0 0 -8.86,-9.65a15.13,15.13 0 0 0 -15.83,25.5c5.13,4.16 12.25,4.52 18.85,4.69l7.55,-7.36z"/>
   <path id="svg_22" fill="#fdffe9" d="m175.499996,102.129992c0,29.25 -1,55 -65,55c-60,0 -65,-25.72 -65,-55s29.1,-53 65,-53s65,23.75 65,53z"/>
   <path id="svg_23" fill="#766e7a" d="m97.639996,84.979992c2.82,3.88 3,9.3 1.14,13.72a22.44,22.44 0 0 1 -9.7,10.3a31.48,31.48 0 0 1 -17.83,4.07c-4.43,-0.32 -9.26,-2 -11.29,-5.92a10.87,10.87 0 0 1 0.17,-9.27a26.77,26.77 0 0 1 5.75,-7.61c4.32,-4.35 9.23,-8.43 15.14,-10s13.01,-0.25 16.62,4.71z"/>
   <path id="svg_24" fill="#766e7a" d="m123.359996,84.979992c-2.82,3.88 -3,9.3 -1.14,13.72a22.44,22.44 0 0 0 9.7,10.3a31.48,31.48 0 0 0 17.83,4.07c4.43,-0.32 9.26,-2 11.29,-5.92a10.87,10.87 0 0 0 -0.17,-9.27a26.77,26.77 0 0 0 -5.75,-7.61c-4.32,-4.35 -9.23,-8.43 -15.14,-10s-13.01,-0.25 -16.62,4.71z"/>
   <path id="svg_25" fill="#f399c0" d="m158.559996,119.699992a16.68,16.68 0 0 0 -13.13,-0.12c-2.11,0.89 -4.22,2.55 -4.38,4.84a4.87,4.87 0 0 0 1.79,3.88a9.3,9.3 0 0 0 4,1.88a18.06,18.06 0 0 0 11.4,-0.92c2.2,-1 4.45,-2.8 4.28,-5.19c-0.18,-2.06 -2.08,-3.57 -3.96,-4.37z"/>
   <path id="svg_26" fill="#f399c0" d="m76.019996,119.699992a16.68,16.68 0 0 0 -13.13,-0.12c-2.11,0.89 -4.22,2.55 -4.38,4.84a4.89,4.89 0 0 0 1.78,3.88a9.41,9.41 0 0 0 4,1.88a18.09,18.09 0 0 0 11.41,-0.92c2.2,-1 4.45,-2.8 4.28,-5.19c-0.18,-2.06 -2.08,-3.57 -3.96,-4.37z"/>
   <path id="svg_27" fill="#171717" d="m131.959996,96.269992c-0.53,0.51 0.55,0.72 0.55,0.72c6.71,-2.63 11.29,1.27 17.3,4.63c-1.01,-5.21 -11.63,-11.18 -17.85,-5.35z"/>
   <path id="svg_28" fill="#171717" d="m89.019996,96.319992c-6.18,-5.86 -16.81,0 -17.85,5.25c6,-3.32 10.61,-7.2 17.3,-4.54c0.03,0 1.08,-0.2 0.55,-0.71z"/>
   <path id="svg_29" fill="#171717" d="m118.729996,116.209992a4,4 0 0 0 -2.74,-1.52a6.48,6.48 0 0 0 -0.77,-0.07l-2.11,0l-6.15,0.09l-1.27,0a4.83,4.83 0 0 0 -1.15,0.16a3.9,3.9 0 0 0 -2.32,1.53a2.67,2.67 0 0 0 0.14,3.24l4.87,6.08a3.16,3.16 0 0 0 0.62,0.59a3.37,3.37 0 0 0 0.61,0.36l0.16,0.1a5.2,5.2 0 0 0 1.78,0.39l0.24,0a4.29,4.29 0 0 0 3.38,-1.56l1.42,-1.89l0,0l3.25,-4.33a2.66,2.66 0 0 0 0.04,-3.17z"/>
   <path id="svg_30" fill="#171717" d="m120.499996,138.069992a10.7,10.7 0 0 1 -1.85,-0.14c-4.41,-0.76 -9.12,-4.72 -9,-11.63a0.78,0.78 0 0 1 0.75,-0.73a0.75,0.75 0 0 1 0.74,0.75c-0.08,6 4,9.49 7.79,10.14a7,7 0 0 0 8.17,-4.86a0.74,0.74 0 0 1 1.41,0.48a8.37,8.37 0 0 1 -8.01,5.99z"/>
   <path id="svg_31" fill="#171717" d="m100.709996,138.379992a8.39,8.39 0 0 1 -8.16,-5.75a0.74,0.74 0 0 1 1.39,-0.52a7.05,7.05 0 0 0 8.32,4.61c3.78,-0.77 7.74,-4.35 7.48,-10.38a0.74,0.74 0 0 1 0.71,-0.77a0.72,0.72 0 0 1 0.77,0.71c0.3,6.9 -4.28,11 -8.67,11.89a9.89,9.89 0 0 1 -1.84,0.21z"/>
   <path id="svg_32" fill="#fff" d="m110.499996,220.999992a110.5,110.5 0 1 1 110.5,-110.5a110.63,110.63 0 0 1 -110.5,110.5zm0,-220a109.5,109.5 0 1 0 109.5,109.5a109.62,109.62 0 0 0 -109.5,-109.5z"/>
  </g>
 </g>
</svg>